<?xml version="1.0" standalone="no"?>
<!DOCTYPE svg PUBLIC "-//W3C//DTD SVG 20010904//EN"
 "http://www.w3.org/TR/2001/REC-SVG-20010904/DTD/svg10.dtd">
<svg version="1.0" xmlns="http://www.w3.org/2000/svg"
 width="500.000000pt" height="500.000000pt" viewBox="0 0 500.000000 500.000000"
 preserveAspectRatio="xMidYMid meet">

<g transform="translate(0.000000,500.000000) scale(0.100000,-0.100000)"
fill="#000000" stroke="none">
<path d="M2765 3846 c-55 -15 -95 -39 -130 -76 -29 -30 -30 -34 -30 -130 l0
-98 31 19 c17 10 41 19 53 19 19 0 21 5 21 70 0 76 15 126 46 150 18 14 18 14
-1 -15 -13 -21 -20 -54 -23 -112 -5 -90 -8 -86 62 -98 l39 -6 -7 43 c-18 116
-18 172 2 211 l20 37 -22 -1 c-11 -1 -39 -6 -61 -13z"/>
<path d="M4070 3480 c-11 -11 -20 -29 -20 -40 0 -31 37 -62 71 -58 24 2 40 -8
97 -65 68 -67 68 -69 58 -102 l-11 -34 -105 -3 -105 -3 0 -65 0 -65 33 -3 33
-3 -3 -77 -3 -77 -97 -3 -98 -3 0 81 0 80 30 0 30 0 0 70 0 70 -165 0 -165 0
0 -70 c0 -68 1 -70 25 -70 l25 0 0 -225 0 -225 -25 0 c-24 0 -25 -2 -25 -70
l0 -70 165 0 165 0 0 70 0 70 -30 0 -30 0 0 75 0 75 100 0 100 0 0 -74 0 -75
-32 -3 -33 -3 -3 -67 -3 -68 171 0 170 0 0 70 0 70 -30 0 -30 0 0 225 0 225
30 0 c17 0 30 4 30 9 0 5 13 16 29 24 29 14 30 14 77 -34 39 -39 49 -56 50
-85 1 -37 12 -50 53 -61 32 -8 75 38 65 70 -11 37 -25 47 -63 47 -31 0 -45 8
-85 49 -42 42 -46 51 -37 69 6 11 11 34 11 50 0 25 6 31 40 45 37 14 43 14 70
-1 28 -16 30 -16 57 4 35 26 41 64 14 88 -37 34 -101 17 -101 -26 0 -13 -14
-25 -46 -39 l-46 -21 -14 20 c-22 32 -77 46 -120 32 l-36 -12 -69 68 c-57 56
-69 74 -69 101 0 59 -59 84 -100 43z m74 -26 c8 -21 -11 -44 -36 -44 -21 0
-33 22 -24 45 7 20 52 19 60 -1z m504 -156 c17 -17 15 -45 -4 -52 -25 -10 -33
-7 -44 13 -7 15 -6 23 6 35 19 19 26 20 42 4z m-205 -69 c23 -29 22 -84 -3
-109 -33 -33 -50 -26 -50 20 l0 40 -45 0 c-38 0 -45 3 -45 19 0 11 12 29 27
41 34 27 89 22 116 -11z m191 -265 c7 -19 -10 -44 -29 -44 -19 0 -38 28 -31
45 7 20 52 19 60 -1z"/>
<path d="M3169 3176 c-190 -68 -295 -305 -223 -507 15 -43 5 -59 -38 -59 -25
0 -28 3 -28 35 l0 35 -90 0 -90 0 0 -35 0 -36 -82 3 -83 3 0 70 0 70 98 3 97
3 0 69 0 70 -100 0 -100 0 0 70 0 70 85 0 85 0 0 -45 0 -45 90 0 90 0 0 115 0
115 -312 -2 -313 -3 -3 -67 -3 -68 36 0 35 0 0 -170 0 -170 -175 0 -175 0 0
170 0 170 45 0 45 0 0 -65 0 -65 75 0 75 0 0 135 0 135 -347 -2 -348 -3 -3
-132 -3 -133 81 0 80 0 0 65 0 65 45 0 45 0 0 -177 0 -178 -122 2 c-400 8
-448 8 -448 -4 0 -18 20 -27 33 -14 7 7 90 11 258 11 212 0 250 -2 263 -16 19
-18 21 -40 5 -50 -7 -4 -8 -9 -1 -13 6 -3 -99 -6 -231 -6 -211 1 -216 0 -44
-2 l197 -3 0 -33 0 -32 -323 0 c-177 0 -328 4 -334 8 -15 10 -36 0 -31 -15 2
-6 129 -9 346 -8 l342 1 0 -30 0 -31 188 -3 c103 -2 33 -3 -156 -3 -222 1
-342 -3 -342 -9 0 -7 118 -9 341 -7 l341 3 53 30 c39 22 65 29 103 29 45 0 52
-3 52 -20 0 -20 7 -20 315 -20 l315 0 0 76 0 77 46 -7 c37 -5 54 -15 92 -54
139 -141 386 -143 543 -3 l44 38 -59 67 -58 66 -45 -39 c-75 -67 -148 -77
-208 -29 -88 69 -87 277 0 346 60 48 145 10 160 -71 l7 -37 94 0 95 0 -3 148
-3 147 -81 3 -82 3 -11 -32 -11 -31 -30 26 c-53 44 -132 57 -201 32z m-849
-526 l0 -40 -175 0 -175 0 0 40 0 40 175 0 175 0 0 -40z m-32 -57 c-22 -3 -38
-10 -38 -17 0 -7 -18 -23 -41 -35 -22 -13 -38 -25 -35 -28 3 -3 21 5 40 17
l36 22 0 -25 c0 -25 0 -25 -95 -26 l-95 0 0 44 0 44 -47 4 c-27 2 33 3 132 4
99 0 163 -2 143 -4z m375 0 c-23 -2 -64 -2 -90 0 -26 2 -7 3 42 3 50 0 71 -1
48 -3z m-567 -118 c-25 -19 -36 -19 -36 0 0 10 10 15 28 15 26 -1 26 -1 8 -15z"/>
</g>
</svg>
